<svg xmlns="http://www.w3.org/2000/svg" version="1.1" xmlns:xlink="http://www.w3.org/1999/xlink" xmlns:svgjs="http://svgjs.com/svgjs" width="256" height="256"><svg xmlns="http://www.w3.org/2000/svg" width="256" height="256" viewBox="0 0 100 100"><rect width="100" height="100" rx="20" fill="#6a49bb"></rect><path fill="#fff" d="M58.46 44.20L58.46 44.20Q58.46 40.33 56.25 38.53Q54.05 36.73 50.27 36.73L50.27 36.73Q47.66 36.73 45.45 37.36Q43.25 37.99 41.63 38.98L41.63 38.98L41.63 71.56Q40.82 71.74 39.47 72.01Q38.12 72.28 36.41 72.28L36.41 72.28Q33.26 72.28 31.73 71.11Q30.20 69.94 30.20 66.97L30.20 66.97L30.20 38.08Q30.20 35.92 31.10 34.57Q32 33.22 33.89 31.96L33.89 31.96Q36.50 30.16 40.82 28.94Q45.14 27.73 50.36 27.73L50.36 27.73Q59.63 27.73 64.72 31.82Q69.80 35.92 69.80 43.84L69.80 43.84L69.80 71.56Q69.08 71.74 67.69 72.01Q66.29 72.28 64.67 72.28L64.67 72.28Q61.43 72.28 59.95 71.11Q58.46 69.94 58.46 66.97L58.46 66.97L58.46 44.20Z"></path></svg><style>@media (prefers-color-scheme: light) { :root { filter: none; } }
</style></svg>